<?xml version="1.0" encoding="UTF-8" standalone="no"?><!-- Generator: Gravit.io --><svg xmlns="http://www.w3.org/2000/svg" xmlns:xlink="http://www.w3.org/1999/xlink" style="isolation:isolate" viewBox="504.592 385.235 50 41.156" width="50pt" height="41.156pt"><path d=" M 541.53 385.235 C 541.53 388.329 540.807 389.695 539.873 390.454 C 538.94 391.211 537.518 391.45 535.905 391.672 C 534.291 391.895 532.49 392.102 530.998 393.297 C 529.76 394.289 528.905 395.93 528.655 398.391 L 508.592 398.391 C 506.392 398.391 504.592 400.191 504.592 402.391 L 504.592 422.391 C 504.592 424.591 506.392 426.391 508.592 426.391 L 550.592 426.391 C 552.792 426.391 554.592 424.591 554.592 422.391 L 554.592 402.391 C 554.592 400.191 552.792 398.391 550.592 398.391 L 530.686 398.391 C 530.901 396.453 531.502 395.457 532.248 394.86 C 533.178 394.114 534.568 393.895 536.186 393.672 C 537.803 393.45 539.631 393.231 541.123 392.016 C 542.615 390.801 543.53 388.661 543.53 385.235 L 541.53 385.235 Z  M 508.592 400.391 L 550.592 400.391 C 551.709 400.391 552.592 401.274 552.592 402.391 L 552.592 422.391 C 552.592 423.508 551.709 424.391 550.592 424.391 L 508.592 424.391 C 507.475 424.391 506.592 423.508 506.592 422.391 L 506.592 402.391 C 506.592 401.274 507.475 400.391 508.592 400.391 Z  M 509.592 404.391 L 509.592 408.391 L 513.592 408.391 L 513.592 404.391 L 509.592 404.391 Z  M 515.592 404.391 L 515.592 408.391 L 519.592 408.391 L 519.592 404.391 L 515.592 404.391 Z  M 521.592 404.391 L 521.592 408.391 L 525.592 408.391 L 525.592 404.391 L 521.592 404.391 Z  M 527.592 404.391 L 527.592 408.391 L 531.592 408.391 L 531.592 404.391 L 527.592 404.391 Z  M 533.592 404.391 L 533.592 408.391 L 537.592 408.391 L 537.592 404.391 L 533.592 404.391 Z  M 539.592 404.391 L 539.592 408.391 L 543.592 408.391 L 543.592 404.391 L 539.592 404.391 Z  M 545.592 404.391 L 545.592 408.391 L 549.592 408.391 L 549.592 404.391 L 545.592 404.391 Z  M 509.592 410.391 L 509.592 414.391 L 516.592 414.391 L 516.592 410.391 L 509.592 410.391 Z  M 518.592 410.391 L 518.592 414.391 L 522.592 414.391 L 522.592 410.391 L 518.592 410.391 Z  M 524.592 410.391 L 524.592 414.391 L 528.592 414.391 L 528.592 410.391 L 524.592 410.391 Z  M 530.592 410.391 L 530.592 414.391 L 534.592 414.391 L 534.592 410.391 L 530.592 410.391 Z  M 536.592 410.391 L 536.592 414.391 L 540.592 414.391 L 540.592 410.391 L 536.592 410.391 Z  M 542.592 410.391 L 542.592 414.391 L 549.592 414.391 L 549.592 410.391 L 542.592 410.391 Z  M 509.592 416.391 L 509.592 420.391 L 513.592 420.391 L 513.592 416.391 L 509.592 416.391 Z  M 515.592 416.391 L 515.592 420.391 L 519.592 420.391 L 519.592 416.391 L 515.592 416.391 Z  M 521.592 416.391 L 521.592 420.391 L 537.592 420.391 L 537.592 416.391 L 521.592 416.391 Z  M 539.592 416.391 L 539.592 420.391 L 543.592 420.391 L 543.592 416.391 L 539.592 416.391 Z  M 545.592 416.391 L 545.592 420.391 L 549.592 420.391 L 549.592 416.391 L 545.592 416.391 Z " fill="rgb(0,0,0)"/></svg>